#Comment line ignore any data following # character 
#Hierarchical Translation and Rotation (.htr) file 
[Header]	
#Header keywords are followed by a single value 
FileType HTR		#Single word string
DataType HTRS		#Translation followed by rotation and scale data
FileVersion 1		#integer
NumSegments 14		#integer
NumFrames 10		#integer
DataFrameRate 30		#integer, data frame rate in this file
EulerRotationOrder ZYX
CalibrationUnits mm
RotationUnits Degrees
GlobalAxisofGravity Y
BoneLengthAxis Y
ScaleFactor 1.00
[SegmentNames&Hierarchy]
#CHILD	PARENT
MASTER GLOBAL
weapon MASTER
barrel_root weapon
middle_left_energyLow_part1 weapon
middle_left_energyLow_part2 weapon
middle_left_root weapon
middle_right_energyLow_part1 weapon
middle_top weapon
barrel1_top_root barrel_root
barrel2_top_root barrel_root
barrel3_top_root barrel_root
barrel1_top_back barrel1_top_root
barrel2_top_back barrel2_top_root
barrel3_top_back barrel3_top_root
[BasePosition]
#SegmentName Tx, Ty, Tz, Rx, Ry, Rz, BoneLength
MASTER 0.000000 0.000000 0.000000 -90.000000 0.000000 0.000000 10.000000 
weapon 0.000000 0.000000 0.000000 0.000000 0.000000 0.000000 10.000000 
barrel_root 0.000000 0.000000 0.000000 0.000000 0.000000 0.000000 10.000000 
middle_left_energyLow_part1 0.000000 0.000000 0.000000 0.000000 0.000000 0.000000 10.000000 
middle_left_energyLow_part2 0.000000 0.000000 0.000000 0.000000 0.000000 0.000000 10.000000 
middle_left_root 0.000000 0.000000 0.000000 0.000000 0.000000 0.000000 10.000000 
middle_right_energyLow_part1 0.000000 0.000000 0.000000 0.000000 0.000000 0.000000 10.000000 
middle_top 0.000000 0.000000 0.000000 0.000000 0.000000 0.000000 10.000000 
barrel1_top_root 0.000000 0.000000 0.000000 0.000000 0.000000 0.000000 10.000000 
barrel2_top_root 0.000000 0.000000 0.000000 0.000000 0.000000 0.000000 10.000000 
barrel3_top_root 0.000000 0.000000 0.000000 0.000000 0.000000 0.000000 10.000000 
barrel1_top_back 0.000000 0.000000 0.000000 0.000000 0.000000 0.000000 10.000000 
barrel2_top_back 0.000000 0.000000 0.000000 0.000000 0.000000 0.000000 10.000000 
barrel3_top_back 0.000000 0.000000 0.000000 0.000000 0.000000 0.000000 10.000000 
#Beginning of Data. Separated by tabs
#Fr	Tx	Ty	Tz	Rx	Ry	Rz	SF
[MASTER]
49 0.000000 0.000000 0.000000 0.000000 -0.000000 0.000000 0.000000
50 0.000000 0.000000 0.000000 0.000000 -0.000000 0.000000 0.000000
51 0.000000 0.000000 0.000000 0.000000 -0.000000 0.000000 0.000000
52 0.000000 0.000000 0.000000 0.000000 -0.000000 0.000000 0.000000
53 0.000000 0.000000 0.000000 0.000000 -0.000000 0.000000 0.000000
54 0.000000 0.000000 0.000000 0.000000 -0.000000 0.000000 0.000000
55 0.000000 0.000000 0.000000 0.000000 -0.000000 0.000000 0.000000
56 0.000000 0.000000 0.000000 0.000000 -0.000000 0.000000 0.000000
57 0.000000 0.000000 0.000000 0.000000 -0.000000 0.000000 0.000000
58 0.000000 0.000000 0.000000 0.000000 -0.000000 0.000000 0.000000
[weapon]
49 0.000000 -104.980469 30.104752 0.000000 0.000000 -0.000020 109.211700
50 0.000019 -104.980469 30.104675 0.000000 0.000000 -0.000020 109.211678
51 0.000000 -104.980621 30.104521 0.000000 0.000000 -0.000020 109.211777
52 -0.000000 -104.980469 30.104752 0.000000 0.000000 -0.000020 109.211700
53 -0.000019 -104.980545 30.104597 0.000000 0.000000 -0.000020 109.211723
54 -0.000038 -104.980385 30.104597 0.000000 0.000000 -0.000020 109.211578
55 -0.000019 -104.980385 30.104675 0.000000 0.000000 -0.000020 109.211601
56 0.000000 -104.980621 30.104521 0.000000 0.000000 -0.000020 109.211777
57 -0.000000 -104.980469 30.104521 0.000000 0.000000 -0.000020 109.211632
58 -0.000038 -104.980469 30.104675 0.000000 0.000000 -0.000020 109.211678
[barrel_root]
49 -0.000019 328.841522 -55.258671 0.001577 -6.148676 0.001577 333.452057
50 -0.000019 328.851105 -55.258675 0.001637 -1.590868 0.001637 333.461487
51 -0.000019 328.860687 -55.258682 0.001660 0.001600 0.001660 333.470947
52 -0.000019 328.870300 -55.258690 0.001629 -2.241843 0.001629 333.480438
53 -0.000019 328.879883 -55.258694 0.001598 -4.485157 0.001598 333.489899
54 -0.000019 328.889496 -55.258701 0.001629 -2.241715 0.001629 333.499359
55 -0.000019 328.898865 -55.258709 0.001660 0.001660 0.001660 333.508606
56 -0.000038 321.715637 -55.258636 0.001660 0.001660 0.001660 326.426788
57 -0.000095 304.586761 -55.258636 0.001660 0.001660 0.001660 309.558746
58 0.000057 284.142761 -55.258556 0.001660 0.001660 0.001660 289.466095
[middle_left_energyLow_part1]
49 -152.219742 -30.653152 -39.080402 0.001660 0.001660 0.001660 160.117905
50 -152.219727 -30.653152 -39.080395 0.001660 0.001660 0.001660 160.117889
51 -152.219727 -30.653152 -39.080391 0.001660 0.001660 0.001660 160.117889
52 -152.219727 -30.653152 -39.080387 0.001660 0.001660 0.001660 160.117889
53 -152.219727 -30.653152 -39.080383 0.001660 0.001660 0.001660 160.117889
54 -152.219711 -30.653152 -39.080379 0.001660 0.001660 0.001660 160.117874
55 -152.219711 -30.653152 -39.080376 0.001660 0.001660 0.001660 160.117874
56 -152.219711 -30.653152 -39.080372 0.001660 0.001660 0.001660 160.117874
57 -152.219711 -30.653152 -39.080368 0.001660 0.001660 0.001660 160.117874
58 -152.219696 -30.653152 -39.080360 0.001660 0.001660 0.001660 160.117844
[middle_left_energyLow_part2]
49 -169.986206 -28.308825 -78.007240 0.001660 0.001660 0.001660 189.160858
50 -169.986206 -28.308828 -78.007233 0.001660 0.001660 0.001660 189.160858
51 -169.986191 -28.308832 -78.007233 0.001660 0.001660 0.001660 189.160843
52 -169.986191 -28.308836 -78.007225 0.001660 0.001660 0.001660 189.160843
53 -169.986191 -28.308840 -78.007225 0.001660 0.001660 0.001660 189.160843
54 -169.986191 -28.308844 -78.007217 0.001660 0.001660 0.001660 189.160828
55 -169.986191 -28.308847 -78.007217 0.001660 0.001660 0.001660 189.160828
56 -169.986191 -28.308851 -78.007217 0.001660 0.001660 0.001660 189.160828
57 -169.986191 -28.308857 -78.007217 0.001660 0.001660 0.001660 189.160828
58 -169.986191 -28.308861 -78.007210 0.001660 0.001660 0.001660 189.160828
[middle_left_root]
49 -69.244354 -30.653027 -78.054680 0.003432 -50.001465 179.996567 108.751656
50 -69.244354 -30.653032 -78.054688 0.003432 -50.001465 179.996567 108.751656
51 -69.244347 -30.653036 -78.054688 0.003432 -50.001465 179.996567 108.751656
52 -69.244347 -30.653040 -78.054695 0.003432 -50.001465 179.996567 108.751663
53 -69.244339 -30.653044 -78.054695 0.003432 -50.001465 179.996567 108.751656
54 -69.244339 -30.653049 -78.054703 0.003432 -50.001465 179.996567 108.751663
55 -69.244331 -30.653053 -78.054710 0.003432 -50.001465 179.996567 108.751663
56 -69.244324 -30.653057 -78.054710 0.003432 -50.001465 179.996567 108.751663
57 -69.244324 -30.653063 -78.054718 0.003432 -50.001465 179.996567 108.751671
58 -69.244316 -30.653067 -78.054726 0.003432 -50.001465 179.996567 108.751678
[middle_right_energyLow_part1]
49 142.814331 -29.615253 -39.080379 0.001660 -0.001660 179.998337 150.997589
50 142.814331 -29.615269 -39.080383 0.001660 -0.001660 179.998337 150.997589
51 142.814331 -29.615282 -39.080387 0.001660 -0.001660 179.998337 150.997604
52 142.814346 -29.615294 -39.080391 0.001660 -0.001660 179.998337 150.997620
53 142.814346 -29.615307 -39.080395 0.001660 -0.001660 179.998337 150.997620
54 142.814346 -29.615322 -39.080402 0.001660 -0.001660 179.998337 150.997635
55 142.814346 -29.615335 -39.080406 0.001660 -0.001660 179.998337 150.997635
56 142.814346 -29.615349 -39.080410 0.001660 -0.001660 179.998337 150.997635
57 142.814346 -29.615362 -39.080414 0.001660 -0.001660 179.998337 150.997650
58 142.814362 -29.615376 -39.080421 0.001660 -0.001660 179.998337 150.997665
[middle_top]
49 -3.220482 49.870071 67.776314 0.001660 0.001660 0.001660 84.208221
50 -3.220482 49.870110 63.454338 0.001660 0.001660 0.001660 80.770363
51 -3.220482 49.870148 59.132462 0.001660 0.001660 0.001660 77.421257
52 -3.220482 49.870129 59.132454 0.001660 0.001660 0.001660 77.421242
53 -3.220482 49.870113 59.132442 0.001660 0.001660 0.001660 77.421219
54 -3.220482 49.870094 59.132435 0.001660 0.001660 0.001660 77.421204
55 -3.220482 49.870083 59.132427 0.001660 0.001660 0.001660 77.421188
56 -3.220482 49.870064 59.132416 0.001660 0.001660 0.001660 77.421165
57 -3.220482 49.870049 59.132408 0.001660 0.001660 0.001660 77.421158
58 -3.220482 49.870029 59.132401 0.001660 0.001660 0.001660 77.421135
[barrel1_top_root]
49 0.000081 96.240509 0.000132 0.000000 -0.000000 0.000000 96.240509
50 0.000081 96.240509 0.000132 0.000000 -0.000000 0.000000 96.240509
51 0.000081 96.240509 0.000132 0.000000 -0.000000 0.000000 96.240509
52 0.000081 96.240509 0.000132 0.000000 -0.000000 0.000000 96.240509
53 0.000081 96.240509 0.000132 0.000000 -0.000000 0.000000 96.240509
54 0.000081 96.240509 0.000132 0.000000 -0.000000 0.000000 96.240509
55 0.000081 96.240509 0.000132 0.000000 -0.000000 0.000000 96.240509
56 0.000081 96.240509 0.000132 0.000000 -0.000000 0.000000 96.240509
57 0.000081 96.240509 0.000132 0.000000 -0.000000 0.000000 96.240509
58 0.000081 96.240509 0.000132 0.000000 -0.000000 0.000000 96.240509
[barrel2_top_root]
49 -0.000009 124.139923 0.000132 179.998825 -79.640297 179.998825 124.139923
50 -0.000009 124.139923 0.000132 179.998795 -62.278309 179.998795 124.139923
51 -0.000009 124.139923 0.000132 179.998779 -54.999893 179.998779 124.139923
52 -0.000009 124.139923 0.000132 179.998795 -62.220921 179.998795 124.139923
53 -0.000009 124.139923 0.000132 179.998810 -69.438644 179.998810 124.139923
54 -0.000009 124.139923 0.000132 179.998795 -62.220470 179.998795 124.139923
55 -0.000009 124.139923 0.000132 179.998779 -54.999702 179.998779 124.139923
56 -0.000009 124.139923 0.000132 179.998779 -54.999702 179.998779 124.139923
57 -0.000009 124.139923 0.000132 179.998779 -54.999702 179.998779 124.139923
58 -0.000009 124.139923 0.000132 179.998779 -54.999702 179.998779 124.139923
[barrel3_top_root]
49 0.000101 69.591400 0.000123 0.004900 62.282745 0.004900 69.591400
50 0.000101 69.591400 0.000123 0.012998 79.639061 0.012998 69.591400
51 0.000101 69.591400 0.000123 179.987000 79.638176 179.987000 69.591400
52 0.000101 69.591400 0.000123 179.995102 62.282162 179.995102 69.591400
53 0.000101 69.591400 0.000123 179.996094 54.997871 179.996094 69.591400
54 0.000101 69.591400 0.000123 179.996094 54.997871 179.996094 69.591400
55 0.000101 69.591400 0.000123 179.996094 54.997871 179.996094 69.591400
56 0.000101 69.591400 0.000123 179.996094 54.997871 179.996094 69.591400
57 0.000101 69.591400 0.000123 179.996094 54.997871 179.996094 69.591400
58 0.000101 69.591400 0.000123 179.996094 54.997871 179.996094 69.591400
[barrel1_top_back]
49 -3.343935 98.041893 186.671844 -14.822052 0.001860 0.001432 210.878571
50 -3.343935 98.041893 186.671844 -4.381188 0.001722 0.001595 210.878571
51 -3.343935 98.041893 186.671844 0.001589 0.001660 0.001660 210.878571
52 -3.343935 98.041893 186.671844 -2.664379 0.001698 0.001621 210.878571
53 -3.343935 98.041893 186.671844 -5.326678 0.001735 0.001581 210.878571
54 -3.343935 98.041893 186.671844 -2.664226 0.001698 0.001621 210.878571
55 -3.343935 98.041893 186.671844 0.001660 0.001660 0.001660 210.878571
56 -3.343935 98.041893 186.671844 0.001660 0.001660 0.001660 210.878571
57 -3.343935 98.041893 186.671844 0.001660 0.001660 0.001660 210.878571
58 -3.343935 98.041893 186.671844 0.001660 0.001660 0.001660 210.878571
[barrel2_top_back]
49 3.886122 70.142326 185.630630 -7.550802 0.001765 0.001547 198.478668
50 3.886122 70.142326 185.630630 -2.228937 0.001692 0.001627 198.478668
51 3.886122 70.142326 185.630630 0.001600 0.001660 0.001660 198.478668
52 3.886122 70.142326 185.630630 -2.219569 0.001692 0.001628 198.478668
53 3.886122 70.142326 185.630630 -4.440612 0.001723 0.001594 198.478668
54 3.886122 70.142326 185.630630 -2.219442 0.001692 0.001628 198.478668
55 3.886122 70.142326 185.630630 0.001660 0.001660 0.001660 198.478668
56 3.886122 70.142326 185.630630 0.001660 0.001660 0.001660 198.478668
57 3.886122 70.142326 185.630630 0.001660 0.001660 0.001660 198.478668
58 3.886122 70.142326 185.630630 0.001660 0.001660 0.001660 198.478668
[barrel3_top_back]
49 -0.050068 125.495209 180.152344 -29.876064 0.002031 0.001176 219.553894
50 -0.050068 125.495209 180.152344 -21.605000 0.001941 0.001319 219.553894
51 -0.050068 125.495209 180.152344 -11.734952 0.001821 0.001481 219.553894
52 -0.050068 125.495209 180.152344 -3.465705 0.001709 0.001609 219.553894
53 -0.050068 125.495209 180.152344 0.001660 0.001660 0.001660 219.553894
54 -0.050068 125.495209 180.152344 0.001660 0.001660 0.001660 219.553894
55 -0.050068 125.495209 180.152344 0.001660 0.001660 0.001660 219.553894
56 -0.050068 125.495209 180.152344 0.001660 0.001660 0.001660 219.553894
57 -0.050068 125.495209 180.152344 0.001660 0.001660 0.001660 219.553894
58 -0.050068 125.495209 180.152344 0.001660 0.001660 0.001660 219.553894
